<svg id="hotel_pad" data-name="hotel pad" xmlns="http://www.w3.org/2000/svg" xmlns:xlink="http://www.w3.org/1999/xlink" width="405" height="570" viewBox="0 0 405 570">
  <defs>
    <filter id="Rectangle_1476" x="94" y="23" width="218" height="50" filterUnits="userSpaceOnUse">
      <feOffset dy="9" input="SourceAlpha"/>
      <feGaussianBlur stdDeviation="5" result="blur"/>
      <feFlood flood-opacity="0.161"/>
      <feComposite operator="in" in2="blur"/>
      <feComposite in="SourceGraphic"/>
    </filter>
  </defs>
  <g id="note_board" data-name="note board" transform="translate(0 0)">
    <g id="Rectangle_1471" data-name="Rectangle 1471" transform="translate(17 17)" fill="#58371e" stroke="#707070" stroke-width="1">
      <rect width="388" height="553" rx="14" stroke="none"/>
      <rect x="0.5" y="0.5" width="387" height="552" rx="13.5" fill="none"/>
    </g>
    <g id="Rectangle_1472" data-name="Rectangle 1472" transform="translate(9 9)" fill="#f0e3d3" stroke="#58371e" stroke-width="1">
      <rect width="388" height="553" rx="14" stroke="none"/>
      <rect x="0.5" y="0.5" width="387" height="552" rx="13.5" fill="none"/>
    </g>
    <g id="Rectangle_1473" data-name="Rectangle 1473" transform="translate(6 6)" fill="#f0e3d3" stroke="#58371e" stroke-width="1">
      <rect width="388" height="553" rx="14" stroke="none"/>
      <rect x="0.5" y="0.5" width="387" height="552" rx="13.5" fill="none"/>
    </g>
    <g id="Rectangle_1474" data-name="Rectangle 1474" transform="translate(3 3)" fill="#f0e3d3" stroke="#58371e" stroke-width="1">
      <rect width="388" height="553" rx="14" stroke="none"/>
      <rect x="0.5" y="0.5" width="387" height="552" rx="13.5" fill="none"/>
    </g>
    <g id="Rectangle_1475" data-name="Rectangle 1475" fill="#f0e3d3" stroke="#58371e" stroke-width="1">
      <rect width="388" height="553" rx="14" stroke="none"/>
      <rect x="0.5" y="0.5" width="387" height="552" rx="13.5" fill="none"/>
    </g>
  </g>
  <g transform="matrix(1, 0, 0, 1, 0, 0)" filter="url(#Rectangle_1476)">
    <rect id="Rectangle_1476-2" data-name="Rectangle 1476" width="188" height="20" transform="translate(109 29)" fill="#58371e"/>
  </g>
</svg>
