<svg xmlns="http://www.w3.org/2000/svg" xmlns:xlink="http://www.w3.org/1999/xlink" width="510" height="624" viewBox="0 0 510 624">
  <defs>
    <filter id="Base" x="66" y="426" width="378" height="198" filterUnits="userSpaceOnUse">
      <feOffset dx="6" dy="6" input="SourceAlpha"/>
      <feGaussianBlur stdDeviation="3" result="blur"/>
      <feFlood flood-opacity="0.161"/>
      <feComposite operator="in" in2="blur"/>
      <feComposite in="SourceGraphic"/>
    </filter>
    <filter id="Base-2" x="0" y="0" width="510" height="510" filterUnits="userSpaceOnUse">
      <feOffset dx="6" dy="6" input="SourceAlpha"/>
      <feGaussianBlur stdDeviation="25" result="blur-2"/>
      <feFlood flood-opacity="0.161"/>
      <feComposite operator="in" in2="blur-2"/>
      <feComposite in="SourceGraphic"/>
    </filter>
  </defs>
  <g id="Team_Member_-_Focused" data-name="Team Member - Focused" transform="translate(-471 -231)">
    <g transform="matrix(1, 0, 0, 1, 471, 231)" filter="url(#Base)">
      <path id="Base-3" data-name="Base" d="M0,0H360a0,0,0,0,1,0,0V155a25,25,0,0,1-25,25H25A25,25,0,0,1,0,155V0A0,0,0,0,1,0,0Z" transform="translate(69 429)" fill="#7bcfb7"/>
    </g>
    <g transform="matrix(1, 0, 0, 1, 471, 231)" filter="url(#Base-2)">
      <path id="Base-4" data-name="Base" d="M0,0H320a40,40,0,0,1,40,40V360a0,0,0,0,1,0,0H0a0,0,0,0,1,0,0V0A0,0,0,0,1,0,0Z" transform="translate(69 69)" fill="#70e2c2"/>
    </g>
    <rect id="divider" width="280" height="1" transform="translate(580 770)" fill="#7fc4fd"/>
  </g>
</svg>
